<svg class="main-svg" xmlns="http://www.w3.org/2000/svg" xmlns:xlink="http://www.w3.org/1999/xlink" width="700" height="450" style="" viewBox="0 0 700 450"><rect x="0" y="0" width="700" height="450" style="fill: rgb(255, 255, 255); fill-opacity: 1;"/><defs id="defs-48ad49"><g class="clips"><clipPath id="clip48ad49xyplot" class="plotclip"><rect width="580" height="330"/></clipPath><clipPath class="axesclip" id="clip48ad49x"><rect x="60" y="0" width="580" height="450"/></clipPath><clipPath class="axesclip" id="clip48ad49y"><rect x="0" y="60" width="700" height="330"/></clipPath><clipPath class="axesclip" id="clip48ad49xy"><rect x="60" y="60" width="580" height="330"/></clipPath></g><g class="gradients"/></defs><g class="bglayer"/><g class="layer-below"><g class="imagelayer"/><g class="shapelayer"/></g><g class="cartesianlayer"><g class="subplot xy"><g class="layer-subplot"><g class="shapelayer"/><g class="imagelayer"/></g><g class="gridlayer"><g class="x"><path class="xgrid crisp" transform="translate(176,0)" d="M0,60v330" style="stroke: rgb(238, 238, 238); stroke-opacity: 1; stroke-width: 1px;"/><path class="xgrid crisp" transform="translate(292,0)" d="M0,60v330" style="stroke: rgb(238, 238, 238); stroke-opacity: 1; stroke-width: 1px;"/><path class="xgrid crisp" transform="translate(408,0)" d="M0,60v330" style="stroke: rgb(238, 238, 238); stroke-opacity: 1; stroke-width: 1px;"/><path class="xgrid crisp" transform="translate(524,0)" d="M0,60v330" style="stroke: rgb(238, 238, 238); stroke-opacity: 1; stroke-width: 1px;"/></g><g class="y"><path class="ygrid crisp" transform="translate(0,321.28)" d="M60,0h580" style="stroke: rgb(238, 238, 238); stroke-opacity: 1; stroke-width: 1px;"/><path class="ygrid crisp" transform="translate(0,265.61)" d="M60,0h580" style="stroke: rgb(238, 238, 238); stroke-opacity: 1; stroke-width: 1px;"/><path class="ygrid crisp" transform="translate(0,209.93)" d="M60,0h580" style="stroke: rgb(238, 238, 238); stroke-opacity: 1; stroke-width: 1px;"/><path class="ygrid crisp" transform="translate(0,154.25)" d="M60,0h580" style="stroke: rgb(238, 238, 238); stroke-opacity: 1; stroke-width: 1px;"/><path class="ygrid crisp" transform="translate(0,98.57)" d="M60,0h580" style="stroke: rgb(238, 238, 238); stroke-opacity: 1; stroke-width: 1px;"/></g></g><g class="zerolinelayer"><path class="xzl zl crisp" transform="translate(60,0)" d="M0,60v330" style="stroke: rgb(68, 68, 68); stroke-opacity: 1; stroke-width: 1px;"/><path class="yzl zl crisp" transform="translate(0,376.96)" d="M60,0h580" style="stroke: rgb(68, 68, 68); stroke-opacity: 1; stroke-width: 1px;"/></g><path class="xlines-below"/><path class="ylines-below"/><g class="overlines-below"/><g class="xaxislayer-below"/><g class="yaxislayer-below"/><g class="overaxes-below"/><g class="plot" transform="translate(60, 60)" clip-path="url(#clip48ad49xyplot)"><g class="scatterlayer mlayer"><g class="trace scatter tracef3898d" style="stroke-miterlimit: 2; opacity: 1;"><g class="fills"/><g class="errorbars"/><g class="lines"><path class="js-line" d="M0,120.88L0.17,120.23L0.22,122.86L0.26,121.86L0.3,125.25L0.6,120.93L0.77,137.64L0.9,124.4L0.95,137.83L1.12,128.28L1.42,144.3L1.63,141.46L1.68,144.08L1.72,153.06L2.28,123.24L2.41,142.27L2.45,143.22L2.58,153.3L2.62,123.28L2.97,141.84L3.01,163.35L3.18,129.54L3.4,166.65L3.83,138.83L3.87,172.37L4.17,103.65L4.65,142.66L4.69,160.31L5.2,176.14L5.33,126.93L5.42,165.92L5.46,182.17L5.55,187.15L5.72,123.56L6.24,161.67L6.28,165.6L6.54,186.93L6.97,103.57L7.01,181.06L7.05,187.11L7.57,156.37L7.61,150.41L7.78,193.41L8.13,132.51L8.39,185.35L8.43,165.18L8.47,163.62L8.52,190.1L8.6,182.89L8.65,202.98L8.73,141.79L8.95,211.17L9.38,149.99L9.42,173.1L9.63,210.49L9.68,134.69L10.11,156.9L10.15,204.36L10.37,104.58L10.45,170.28L10.49,221.32L10.8,151.61L11.27,175.39L11.31,182.09L11.48,221.62L11.91,122.03L12.09,132.45L12.13,192.72L12.17,88.86L12.39,225.16L12.86,186.24L12.9,203.29L13.33,128.98L13.59,203.39L13.68,177.1L13.72,210.19L14.28,131.19L14.45,184.77L14.49,206.1L14.88,221.07L14.92,145L15.23,199.28L15.27,219.49L15.44,246.17L15.53,130.88L16.04,192.73L16.09,162.27L16.34,144.89L16.77,250.29L16.86,208.32L16.9,176.96L17.42,16.5L17.51,232.42L17.59,150.06L17.63,202.97L17.81,238.49L18.19,159.8L18.24,106.56L18.41,236.39L19.01,175.04L19.05,175.4L19.27,140.5L19.83,223.65L19.87,168.53L19.91,238.24L20.17,116.48L20.6,190.28L20.65,193.87L21.03,223.05L21.08,147L21.38,197.6L21.42,219.89L21.76,235.23L21.85,127.8L22.19,162.82L22.24,166.05L22.54,142.46L22.97,242.41L23.01,199.85L23.05,129.38L23.44,230.53L23.7,92.66L23.83,219.98L23.87,196.09L23.96,89.36L24.04,223.42L24.3,170.63L24.34,84.7L25.2,221L25.25,210.82L25.29,209.89L25.33,177.74L25.55,168.5L26.15,244.52L26.19,228.94L26.49,170.48L26.97,202.6L27.01,226.11L27.57,178.78L27.61,243.81L27.74,232.45L27.78,234.02L28.04,243.12L28.09,104.29L28.56,212.31L28.6,202.27L28.77,155.92L29.25,228.81L29.29,205.65L29.33,237.67L29.63,245.44L29.76,135.53L30.11,204.35L30.15,202.54L30.37,168.66L30.41,211.23L30.45,224.46L30.58,255.24L30.8,102.57L30.97,210.53L31.01,240.75L31.27,140.48L31.44,254.99L31.74,209.46L31.78,235.44L31.91,240.89L32,143.57L32.34,209.46L32.39,217.58L32.47,227.39L32.52,153.56L32.69,214.25L32.73,158.92L33.03,250.77L33.2,145.92L33.46,209.88L33.51,166.57L33.68,158.9L33.89,249.3L34.11,183.48L34.15,49.97L34.8,241.05L34.92,211.12L34.97,193.74L35.01,160.05L35.44,237.43L35.66,173.45L35.7,217.16L35.96,114.81L36.09,256.9L36.34,213.74L36.39,183.76L36.9,239.66L37.03,73.71L37.16,221.74L37.2,217.47L37.42,254.38L37.55,166.06L37.94,182.9L37.98,211.33L38.02,211.15L38.06,213.64L38.11,164.48L38.24,139.93L38.92,254.06L38.97,216.51L39.1,173.81L39.14,239.31L39.18,238.97L39.23,145.6L39.66,93.69L39.83,247.29L40,193.38L40.04,241.67L40.3,243.77L40.69,142.28L40.77,230.44L40.82,231.1L40.86,252.63L40.99,155.84L41.46,208.26L41.51,158.23L41.63,43.99L42.15,255.35L42.28,218.56L42.32,202.72L42.37,135.24L42.92,259.5L43.01,219.52L43.05,244.48L43.48,246.79L43.74,167.46L43.83,175.7L43.87,220.79L43.96,246.46L44.09,213.68L44.17,214.03L44.22,125.31L44.3,242.33L44.99,241.11L45.03,53.36L45.55,266.47L45.81,170.71L45.85,211.43L46.19,171.81L46.49,252.71L46.58,239.61L46.62,205.42L47.23,248.92L47.27,115.62L47.31,233.81L47.35,255.08L47.78,195.5L48.09,222.68L48.13,238.92L48.47,244.75L48.65,186.47L48.69,225.6L48.73,243.68L48.82,159.93L49.38,254.82L49.46,252.29L49.51,215.99L49.55,140.34L49.81,249.14L50.24,195.46L50.28,240.22L50.45,241.03L51.01,59.24L51.05,249.94L51.1,254.85L51.23,197.82L51.31,218.81L51.35,193.33L51.83,246.84L51.91,140.96L52.09,208.39L52.13,207.3L52.22,186.07L52.3,237.45L52.39,187.17L52.43,264.35L52.52,161.31L52.65,270.69L53.2,193.76L53.25,235.44L53.38,189.38L53.51,258.34L53.89,236.76L53.94,252.94L54.24,176.66L54.32,264.57L54.62,199.81L54.67,257.84L54.75,91.8L55.31,225.92L55.35,234.1L55.4,234.28L55.44,239.53L55.61,263.64L55.74,205.39L55.96,236.74L56,266.21L56.17,269.36L56.52,175.95L56.73,240.49L56.77,245.1L56.9,198.77L57.12,273.75L57.33,268.93L57.38,199.99L57.51,267.26L57.55,241.16L57.59,143.06L58.11,263.18L58.37,257.75L58.41,227.32L58.54,262.81L58.62,235.99L58.67,181.67L58.71,151.73L59.18,271.86L59.35,227.85L59.4,217.01L59.44,216.18L59.48,235.2L59.7,202.53L59.96,266.23L60.17,243.12L60.22,176.95L60.47,272.96L60.99,230.71L61.03,224.79L61.25,269.38L61.29,195.46L61.81,257.18L61.85,262.88L62.02,271.97L62.28,160.02L62.62,200.86L62.67,267.39L62.84,86.32L63.23,232.34L63.27,272.11L63.31,212.88L64,219.61L64.04,246.07L64.22,218L64.56,267.34L64.69,235.03L64.73,259.06L64.77,258.13L64.82,236.49L65.2,282.63L65.29,203.07L65.59,254.47L65.63,267.22L66.11,274.38L66.45,171.2L66.49,249.82L66.58,251L66.62,241.17L66.67,220.74L66.88,275.04L67.35,116.3L67.4,261.57L67.74,286.06L68,207.51L68.17,235.42L68.22,253.25L68.52,208.05L68.69,269.84L68.95,265.67L68.99,224.18L69.46,216.43L69.63,281.18L69.76,247.3L69.81,248.88L70.24,281.96L70.28,243.55L70.54,265.91L70.58,233.55L71.27,221.78L71.35,287.86L71.4,277.98L71.83,283.48L71.96,229.45L72.13,236.56L72.17,259.11L72.26,262.37L72.3,285.76L72.56,292.41L72.6,200.23L73.08,242.91L73.12,256.81L73.33,245.8L73.42,269.3L73.46,210.64L73.59,272.69L73.85,192.31L74.15,256.42L74.19,64.07L74.71,288.17L74.97,262.31L75.01,266.87L75.18,284.5L75.78,230.54L75.83,244.72L76.04,279.42L76.09,219.62L76.6,262.93L76.65,261.15L76.77,69.42L76.95,279.43L77.29,247.45L77.33,254.59L77.38,253.32L77.46,264.83L77.51,273.3L77.55,276.08L77.81,251.18L77.94,260.74L77.98,238.89L78.41,233.78L78.45,277.63L78.71,269.26L78.75,226.45L79.53,283.72L79.57,265.09L79.83,272L79.96,240.75L80,279.07L80.04,279.74L80.09,262.17L80.73,288.08L80.77,250.43L80.82,278.1L80.86,260.05L81.12,227.91L81.51,284.07L81.55,265.16L81.59,219.73L81.94,284.47L82.37,277.16L82.41,284.66L82.92,292.79L83.01,246.9L83.14,269.39L83.18,278.41L83.48,248.06L83.74,281.3L83.78,102.39L83.91,287.09L84.56,224.2L84.6,245.26L85.03,280.32L85.12,267.33L85.16,256.33L85.46,288.14L85.51,239.36L85.85,284.47L85.89,243.98L86.11,286.3L86.37,221.54L86.67,279.36L86.71,281.11L86.88,258.18L87.01,285.53L87.05,273.5L87.1,290.66L87.7,242.13L87.83,282.28L87.87,283.07L87.96,291.04L88.22,264.59L88.6,271.07L88.65,295.55L89.25,253.38L89.38,265.24L89.42,283.04L89.51,293.09L89.76,257.62L90.19,278.4L90.24,287.51L90.71,250.92L90.84,290.57L90.97,262.14L91.01,288.33L91.1,295.97L91.18,283.24L91.23,265.63L91.35,258.11L91.44,287.53L91.61,284.32L91.66,122.78L92.3,289.55L92.43,275.96L92.47,286.64L92.52,253.03L92.99,288.69L93.2,288.07L93.25,277.35L93.33,131.94L93.38,286.48L93.81,269L93.85,265.03L94.28,292.02L94.67,289.52L94.71,254.37L94.92,243.69L95.27,298.02L95.48,284.78L95.53,281.69L95.66,292.53L95.78,274.17L96.13,289.94L96.17,258.42L96.56,294.3L96.9,271.05L96.95,261.47L97.12,249.07L97.72,290.61L97.76,285.15L97.85,295.26L97.94,257.72L98.49,286.14L98.54,283.88L98.62,264.11L98.92,287.8L99.27,280.87L99.31,293.6L99.48,294.46L99.66,268.13L100.09,279.04L100.13,276.32L100.3,217.35L100.77,291.66L100.86,284.9L100.9,272.9L101.12,294.14L101.25,230.23L101.63,292.98L101.68,266.41L101.98,125.21L102.19,296.26L102.45,295.32L102.49,279.09L102.67,296.84L102.92,264.37L103.23,286.39L103.27,262.42L103.87,296.72L104.04,290.46L104.09,287.44L104.26,268.53L104.73,295.47L104.82,286.2L104.86,284.26L105.08,274.67L105.33,298.35L105.46,288.49L105.51,295.68L106.19,259.24L106.28,280.75L106.32,293.89L106.58,273L106.97,285.32L107.01,290.49L107.14,297.81L107.18,274.52L107.78,282.65L107.83,291.25L108.09,279.2L108.17,297.57L108.3,289.82L108.34,274.21L108.69,300.25L108.77,271.4L109.03,288.34L109.08,254.94L109.42,298.61L109.81,287.68L109.85,123.69L110.49,301.61L110.62,296.1L110.67,286.76L110.71,286.54L110.75,286.88L110.8,292.69L111.31,294.77L111.48,271.92L111.53,284.32L111.57,296.08L112.09,299.73L112.13,261.56L112.34,283.98L112.39,289.27L112.43,299.29L112.47,271.61L113.12,289.12L113.16,282.07L113.29,303.17L113.72,274.68L113.94,295.08L113.98,290.28L114.11,131.54L114.15,294.62L114.24,300.33L114.41,286.38L114.45,240.34L115.18,299.45L115.23,296.59L115.27,295.51L115.53,268.79L115.83,290.52L115.87,299.99L115.96,268.44L116.6,288.86L116.65,299.16L116.73,279.76L117.33,291.26L117.38,302.26L117.51,275.35L117.72,304.8L117.85,294.46L117.89,146.01L118.58,300.61L118.67,296.51L118.71,293.97L119.05,299.61L119.44,274.86L119.48,286.86L119.53,286.87L119.57,303.38L119.78,278.66L120.26,298L120.3,266.73L120.39,257.99L120.99,297.72L121.08,295.57L121.12,287.3L121.2,304.49L121.42,264.6L121.81,285.73L121.85,282.29L122.02,279.53L122.06,295.62L122.15,293.6L122.19,139.98L122.54,300.11L122.97,294.69L123.01,296.66L123.44,305.47L123.61,285.3L123.74,291.98L123.78,295.9L124,284.45L124.09,303.27L124.52,295.94L124.56,295.26L124.77,295.66L124.9,267.61L125.12,291.92L125.16,298.42L125.55,301.24L125.63,256.55L125.89,280.87L125.94,295.88L126.11,292.2L126.15,298.35L126.19,285.45L126.41,301.48L126.71,281.96L126.97,297.48L127.01,287.51L127.1,269.25L127.53,300.45L127.57,288.33L127.61,300.57L127.74,285.21L127.87,299.25L127.91,123.21L128.52,299.49L128.69,283.39L128.73,284.71L128.9,302.11L129.08,276.43L129.46,299.25L129.51,293.71L129.55,293.88L129.59,289.5L129.85,268.19L130.11,301.54L130.32,300.46L130.37,293.72L130.67,302.31L130.97,280.76L131.01,297.29L131.05,283.91L131.35,302.44L131.4,278.79L131.83,293.4L131.87,276.19L132.26,265.06L132.3,301.51L132.65,296.55L132.69,279.89L133.12,301.21L133.51,297.62L133.55,295.77L133.76,301.02L134.19,279.14L134.24,284.55L134.28,298.9L134.49,278.59L134.67,303.51L134.97,300.26L135.01,302.28L135.1,286.89L135.35,289.03L135.4,299.3L135.53,302.2L135.57,290.51L135.61,294.63L135.66,269.88L136.43,301.14L136.47,300.75L136.52,291.27L136.95,282.43L137.16,302.54L137.2,292.93L137.25,297.94L137.51,298.33L137.63,162.57L137.72,297.52L137.76,292.58L138.11,265.08L138.19,300L138.49,289.36L138.54,292.39L138.71,286.7L138.88,304.44L139.18,297.32L139.23,282.52L139.74,302.7L140,294.17L140.04,296.52L140.17,291.56L140.22,303.92L140.26,298.43L140.3,283.62L140.86,275.09L141.08,302.42L141.12,300.58L141.68,301.13L141.81,283.27L141.89,286.52L141.94,296.81L142.06,301.67L142.41,287.46L142.71,299.64L142.75,297.06L143.23,302.18L143.31,284.23L143.48,287.99L143.53,299.49L144.17,270.16L144.3,296.22L144.34,295.72L144.47,284.49L144.65,304.01L144.82,297.16L144.86,168.23L145.29,302.83L145.63,290.53L145.68,281.23L145.89,230.26L146.24,302.48L146.45,293.16L146.49,294.63L146.58,303.67L146.97,285.06L147.01,298.02L147.05,271.53L147.4,304.83L147.83,297.44L147.87,296.18L147.91,284.57L148.26,303.11L148.65,287.2L148.69,301.17L148.73,304.34L149.03,281.18L149.33,292.52L149.38,266.04L149.72,303.97L150.15,289.48L150.19,295.92L150.32,301.59L150.49,276.68L150.92,289.58L150.97,295.13L151.35,281.96L151.53,301.84L151.66,289.55L151.7,300.51L151.74,286.13L152.17,302.48L152.43,287.7L152.47,293.5L152.6,298.53L152.65,288.59L152.69,298.11L152.73,274.93L152.95,305.74L153.51,300.01L153.55,294.17L153.68,270.17L154.19,303.81L154.28,297.91L154.32,297.44L154.41,293.55L154.45,302.61L154.49,298.36L154.54,173.99L155.05,305.7L155.31,297.94L155.35,283.09L155.53,303.9L156.13,300.93L156.17,299.08L156.22,277.84L156.86,304.88L156.9,295.3L156.95,299.11L157.03,269.29L157.38,302.42L157.42,299.31L157.46,287.08L158.11,305L158.24,295.74L158.28,299.38L158.41,291.68L158.8,303.69L158.92,298.11L158.97,303.73L159.1,291.35L159.31,297.26L159.35,302.64L159.83,224.59L160.09,284.13L160.13,300.88L160.86,290.64L160.9,295.77L160.95,300.64L161.25,302.89L161.38,261.03L161.68,299.77L161.72,297.24L161.98,288.99L162.02,302.59L162.41,295.74L162.45,293.67L162.84,302.66L163.01,276.49L163.18,302.24L163.23,292.93L163.53,306.42L163.61,285.45L164,302.47L164.04,295.25L164.34,281.41L164.69,303.84L164.77,303.04L164.82,298.26L165.03,302.05L165.29,284.94L165.33,296.9L165.38,302.29L165.46,284.91L165.98,305.38L166.06,293.3L166.11,297.42L166.28,253.67L166.58,302.91L166.67,285.32L166.71,299.25L166.75,299.55L166.8,295.25L166.84,287.71L167.01,286.4L167.27,305.38L167.53,304.86L167.57,237.84L168.34,303.03L168.39,296.97L168.69,289.99L168.82,302.82L168.86,291.72L169.2,304.78L169.55,278.21L169.59,283.06L170.06,303.28L170.37,295.55L170.41,297.52L170.58,290.9L170.67,305.62L171.18,299.62L171.23,296.43L171.27,305.27L171.78,285.65L171.96,303.29L172,294.92L172.04,286.85L172.56,305.52L172.69,292.02L172.73,303.64L173.08,237.57L173.12,305.94L173.51,292.54L173.55,297.14L173.85,291.31L173.94,303.28L174.06,294.68L174.11,289.12L174.37,305.91L174.62,279.58L174.88,301.53L174.92,294.15L175.05,302.24L175.23,300.89L175.27,246.89L175.96,304.05L176.04,298.65L176.09,299.86L176.17,292.02L176.9,306.17L176.95,302.98L177.59,288.24L177.72,298.29L177.76,296.96L178.02,293.15L178.06,305.11L178.11,236.9L178.88,305.78L178.92,288.11L179.35,304.85L179.48,270.89L179.7,298.24L179.74,291.49L180.09,306.87L180.17,290.82L180.47,298.49L180.52,298.22L180.65,298.52L180.69,281.21L180.73,285.27L180.77,307.11L181.46,286.29L181.51,301.57L181.55,304.78L181.85,306.7L181.89,286.2L182.28,303.36L182.32,303.52L182.41,302.21L182.49,303.97L182.54,294.05L183.18,304.14L183.23,303.61L183.27,287.74L183.96,305.24L184,297.42L184.04,279.18L184.13,254.65L184.17,305.77L184.82,304.72L184.86,301.58L184.95,304.34L185.2,287.74L185.59,295.39L185.63,300.94L185.81,305.59L185.89,294.9L185.94,298.62L185.98,285.48L186.67,306.71L186.75,303.66L186.8,299.67L187.18,306.12L187.53,290.07L187.57,302.11L187.7,289.36L187.91,304.15L188.09,297.02L188.13,292.29L188.73,289.3L188.77,305.74L188.9,303.06L188.95,284.37L189.63,305.04L189.72,295L189.76,297.53L189.94,306.05L190.02,293.76L190.41,299.6L190.45,295.05L190.58,301.44L190.71,293.11L190.75,301.41L190.8,301.21L190.84,292.49L191.4,304.66L191.61,304.34L191.66,302.3L191.78,288.81L191.91,309.1L192.43,296.83L192.47,304.87L193.08,307.23L193.12,290.17L193.2,295.37L193.25,302.94L193.33,300.5L193.46,306.6L193.76,300.54L193.81,297.06L194.32,279.95L194.37,306.97L194.58,301.46L194.62,285.57L195.14,303.71L195.4,298.6L195.44,306.11L195.83,306.99L196,273.96L196.17,299.26L196.22,302.2L196.47,306.44L196.9,278.24L196.95,287.7L196.99,301.31L197.03,247.08L197.59,308.02L197.72,297.59L197.76,302.43L197.85,293.66L198.24,306.18L198.49,294.53L198.54,303.88L198.62,308.37L198.84,289.23L199.27,301.47L199.31,303.97L199.44,287.94L199.48,297.75L199.53,305.22L199.74,291.78L200.17,301.17L200.22,304.45L200.65,307.5L200.82,287L200.99,292.61L201.03,305.59L201.16,308.48L201.38,261.18L201.55,300.19L201.59,304.39L201.68,306L201.89,294.37L202.02,302.04L202.06,233.91L202.8,306.92L202.84,306.17L202.88,300.19L203.01,305.9L203.31,289.61L203.57,302.54L203.61,296.81L203.7,293.02L203.87,305.82L204.39,302.11L204.43,302.14L204.47,302.67L204.52,277.58L204.86,306.58L205.29,305L205.33,307L206.15,295.64L206.19,305.16L206.24,290.46L206.92,307.14L206.97,303.24L207.35,306.94L207.74,266.9L207.78,305.96L208.09,296.52L208.34,308.2L208.56,300.78L208.6,305.02L209.08,294.73L209.12,304.37L209.42,295.25L209.51,307.92L209.59,298.04L209.63,288.22L210.06,307.75L210.41,296.32L210.45,297.69L210.49,308.49L211.18,295.37L211.23,299.52L211.48,292.85L211.61,307.57L211.66,296.44L211.7,260.88L212.47,308.09L212.52,298.07L213.08,294.48L213.16,307.83L213.25,303.62L213.29,294.54L213.81,307.66L214.06,303.37L214.11,300.98L214.28,307.09L214.71,296.46L214.75,306.21L214.8,295.16L214.97,294.6L215.4,307.67L215.61,307.43L215.66,304.76L215.91,306.63L216.34,289.04L216.39,294.5L216.43,306.22L216.69,296.2L217.12,298.98L217.16,305.07L217.38,289.84L217.51,306.47L217.94,298.44L217.98,304.44L218.06,298.06L218.37,305.99L218.58,305.11L218.62,305.23L218.67,288.73L218.92,307.33L219.35,305.61L219.4,303.66L219.53,306.15L219.7,228.57L219.91,279.29L219.96,302.69L220,299.17L220.43,308.2L220.69,301.24L220.73,303.83L220.82,304.57L220.86,301.49L220.9,293.84L221.25,307.12L221.68,305.49L221.72,300.67L221.89,307.82L222.19,296.49L222.49,305.83L222.54,301.27L222.71,307.11L222.97,294.03L223.18,302.63L223.23,291.05L223.57,307.76L223.83,281.89L224,302.46L224.04,300.82L224.26,294.72L224.52,305.36L224.77,296.01L224.82,304.65L225.33,299.99L225.38,307.48L225.51,302.19L225.55,307.03L226.02,287.11L226.28,300.98L226.32,306.58L226.58,292.93L226.84,307.64L227.01,305.91L227.05,305.46L227.4,307.16L227.78,295.08L227.87,295.13L227.91,302.99L228.04,307.15L228.13,293.33L228.22,300.54L228.26,308.56L228.69,295.17L228.99,308.59L229.03,303.18L229.08,301.79L229.46,283.85L229.51,306.7L229.76,296.44L229.81,298.87L230.15,305.46L230.19,293.23L230.24,301.93L230.28,271.19L230.92,306.66L231.05,304.17L231.1,303.7L231.14,308.52L231.48,297.13L231.78,300.36L231.83,299.89L231.91,308.71L231.96,298.87L232.39,304.96L232.43,296.56L232.73,307.21L232.86,252.33L233.2,306.84L233.25,301.76L233.29,307.25L233.55,296.88L233.98,300.67L234.02,304.36L234.06,294.52L234.37,307.29L234.75,302.24L234.8,300.47L234.88,299.79L235.14,309.38L235.53,302.47L235.57,300.38L235.7,306.69L236.26,300.18L236.34,305.5L236.39,301.35L236.56,296.54L236.9,308.73L237.12,299.54L237.16,307.21L237.72,295.12L237.85,308.7L237.94,296.42L237.98,306.2L238.02,296.07L238.15,309.19L238.71,303.9L238.75,305.39L238.97,301.26L239.05,305.92L239.35,302.98L239.4,305.17L239.48,307.9L240.04,252.4L240.09,300.55L240.13,308.32L240.22,295.84L240.9,302.53L240.95,300.2L241.03,290.71L241.12,307.47L241.76,306.78L241.81,302.72L241.85,302.02L241.98,306.53L242.02,305.13L242.06,288.68L242.45,307.97L242.84,304.23L242.88,294.69L242.97,308.05L243.66,303.96L243.7,304.28L243.83,308.25L244.04,286.57L244.47,302.87L244.52,308.78L245.03,298.79L245.33,303.02L245.38,303.4L245.46,291.97L246.11,308.62L246.15,303.38L246.19,308.34L246.58,299.83L246.84,305.98L246.88,300.36L247.44,308.19L247.57,293.43L247.61,302.72L247.66,302.95L248.26,283.41L248.34,306.86L248.39,303.47L248.43,304.49L248.47,295.39L249.12,308.81L249.16,304.79L249.2,304.56L249.46,297.59L249.72,308.33L249.76,304.54L249.81,298.08L250.45,309.38L250.58,307.96L250.62,297.09L251.1,290.89L251.18,308.19L251.4,305.08L251.44,299.66L251.57,307.32L251.7,298.95L252.13,303.14L252.17,297.81L252.3,308.53L252.95,304.27L252.99,305.15L253.03,305.45L253.08,296.25L253.85,307.56L253.89,305.63L254.37,296.52L254.54,308.41L254.67,302.35L254.71,308.65L254.75,295.07L255.44,304.26L255.48,305.22L255.7,308.09L255.78,288.28L255.87,301.22L255.91,308.16L256.22,295.65L256.69,301.53L256.73,303.77L256.82,297.65L256.9,308.83L257.46,307.63L257.51,302.99L257.55,288.45L257.94,307.58L258.24,306.88L258.28,299.92L258.75,291.49L258.97,307.92L259.05,307.88L259.1,303.39L259.14,309.01L259.78,298.43L259.83,306.25L259.87,298.05L260.39,276.89L260.6,309.22L260.65,305.04L260.69,304.06L260.82,298.2L260.86,308.49L261.12,302.48L261.16,309.14L261.72,301.42L261.94,306.42L261.98,307.67L262.06,300.92L262.11,309.92L262.37,296.4L262.92,304.98L262.97,307.12L263.18,296.98L263.44,308.23L263.61,297.89L263.66,307.63L264.22,281.16L264.39,302.39L264.43,303.3L264.52,303.59L264.56,306.61L264.6,297.78L265.03,307.83L265.33,301.15L265.38,306.11L265.72,308.56L265.76,293.42L266.11,301.78L266.15,307.43L266.49,309.85L267.01,299.6L267.05,304.22L267.1,294.47L267.48,309L267.78,299.66L267.83,302.97L267.91,296.53L267.96,308.12L268.56,304.67L268.6,299.71L268.73,294.29L269.12,308.64L269.38,308.39L269.42,304.44L269.63,301.12L269.68,308.59L269.98,303.67L270.02,298.69L270.19,282.16L270.24,309.72L270.75,297.28L270.8,299.62L271.18,297.35L271.23,309.37L271.57,308.18L271.61,305.76L271.78,301.78L272,307.55L272.04,286.43L272.52,309.91L272.82,299.15L272.86,304.55L272.9,308.15L273.51,296.38L273.63,307.75L273.68,303.16L273.72,300.83L274.02,309.52L274.32,303.1L274.37,308.07L274.54,300.93L274.67,308.29L274.71,292.56L274.8,309.81L274.88,287.48L275.48,309.16L275.53,306.12L275.83,295.99L276.17,309.74L276.34,297.46L276.39,305L276.82,303.04L277.12,308.65L277.16,300.46L277.63,308.22L277.94,306.04L277.98,301.83L278.24,290.95L278.75,308.95L278.8,305.82L278.84,297.6L279.4,308.52L279.61,305.22L279.66,301.16L279.78,295.66L279.83,308.67L280.34,305.4L280.39,295.28L281.16,309.11L281.2,303.51L281.33,309.15L281.55,299L281.81,304.12L281.85,299.63L282.45,297.43L282.58,309.21L282.62,300.63L282.67,297.58L282.92,309.2L283.27,304.51L283.31,305.48L283.61,301.05L283.83,307.99L283.87,309.62L284,309.69L284.09,294.06L284.56,303.44L284.6,308.27L284.77,303.6L284.86,309.8L285.03,307.88L285.08,304.69L285.46,306.82L285.51,300.8L285.63,306.59L285.68,297.22L286.06,309L286.45,307.31L286.49,309.87L286.97,297.97L287.14,310.45L287.23,301.38L287.27,307.48L287.7,308.69L287.91,294.62L287.96,304.86L288,308.63L288.43,302.23L288.73,307.94L288.77,307.06L288.82,307.23L288.86,303.62L288.9,308L289.08,296.14L289.63,306.76L289.68,303.22L289.81,309.89L289.85,278.11L289.94,303.53L289.98,308.26L290.06,305.68L290.11,307.28L290.15,303.17L290.24,289.18L290.32,309.22L290.54,308.48L290.58,286.04L290.75,309.84L291.35,306.33L291.4,309.28L291.66,300.53L291.83,306L291.87,306.68L292.22,309.62L292.3,301.72L292.6,307.62L292.65,302.59L292.86,309.18L292.9,299.85L293.38,304.42L293.42,303.46L293.76,309.11L293.94,299.6L294.19,308.23L294.24,306.54L294.49,309.81L294.92,293.93L295.01,305.14L295.05,307.12L295.18,309.87L295.66,300.3L295.74,304.01L295.78,308.6L296,299.82L296.22,309.07L296.52,306.49L296.56,307.53L296.65,299.96L296.82,309.24L297.08,309.06L297.12,300.71L297.25,298.87L297.38,308.35L297.89,307.63L297.94,305.35L297.98,310.57L298.11,303.8L298.71,308.2L298.75,307.54L299.14,310.35L299.23,275.52L299.35,292.78L299.4,306.36L299.7,307.51L299.96,297.31L300.13,306.81L300.17,303.83L300.47,308.59L300.86,301.7L300.95,306.66L300.99,304.55L301.12,308.73L301.33,302.19L301.46,304.31L301.51,300.19L301.63,308.26L302.24,305.83L302.28,304.01L302.67,309.25L302.97,301.21L303.01,307.64L303.44,299.75L303.7,309.12L303.78,305.02L303.83,305.69L304.17,309.21L304.52,300.49L304.56,307.09L304.82,309.26L304.9,300.83L305.12,306.95L305.16,296.3L305.25,292.02L305.72,309.41L305.89,300.39L305.94,304.71L306.02,302.1L306.32,310.13L306.62,306.12L306.67,305.03L307.01,296.92L307.05,309.02L307.35,306.07L307.4,303.85L307.74,298.55L307.87,309.1L308.17,306.24L308.22,304.48L308.3,309.16L308.65,298.62L308.9,307.6L308.95,302.12L309.16,309.22L309.72,306.2L309.76,306.88L309.81,288.77L309.94,309L310.49,306.59L310.54,301.27L310.92,308.42L311.01,307.24L311.05,297.53L311.35,310.68L311.83,307.94L311.87,308.04L312.09,300.57L312.13,309.94L312.22,298.64L312.86,307.91L312.9,308.23L313.08,309.75L313.59,298.29L313.63,302.7L313.68,283.51L313.81,310.37L314.45,307.47L314.49,302.26L314.58,296.71L314.8,310.25L315.23,303.72L315.27,302.69L315.91,310.55L315.96,300.07L316.04,305.44L316.09,306.77L316.13,300.1L316.22,310.39L316.82,301.89L316.86,306.77L316.99,309.81L317.2,303.39L317.42,307.67L317.46,303.28L317.76,308.56L317.81,302.12L318.15,300.78L318.54,310.22L318.58,308.5L318.62,308.55L319.01,309.72L319.14,300.03L319.44,301.23L319.48,305.43L319.74,309.09L319.96,293.94L320.17,307.9L320.22,304.73L320.52,309.46L320.6,299.96L320.9,303.18L320.95,303.08L321.16,299.59L321.76,310L321.81,307.84L321.85,307.55L321.89,301.76L321.98,298.93L322.15,308.86L322.49,304.1L322.54,307.85L322.84,299.66L322.97,308.57L323.27,304.11L323.31,309.15L323.53,295.46L323.66,309.87L324.04,306.82L324.09,305.07L324.22,311.71L324.43,302.14L324.77,307.88L324.82,299.65L325.25,310.01L325.59,307.58L325.63,306.71L325.68,307.11L325.72,298.45L325.85,296.69L326.41,309.75L326.49,306.08L326.54,308.88L326.92,302.82L327.01,309.96L327.27,306.61L327.31,308.63L327.66,304.15L327.7,308.69L327.96,307.4L328,310.49L328.43,287.48L328.77,307.08L328.82,305.33L328.95,310.07L329.25,302.33L329.46,306.49L329.51,309.15L329.55,302.24L329.63,309.54L330.24,308.76L330.28,307.44L330.41,301.29L330.71,308.97L331.01,306.36L331.05,307.97L331.14,296.98L331.18,310.85L331.78,308.42L331.83,300.6L331.96,308.46L332.17,304.96L332.22,265.15L332.99,309.65L333.03,307.94L333.33,308.72L333.63,303L333.81,306.16L333.85,306.17L334.24,299.68L334.37,309.4L334.49,304.89L334.54,309.01L334.84,304.34L334.92,309.8L335.31,306.52L335.35,307.3L335.44,305.31L335.53,310.54L335.57,295.49L335.91,310.56L336.34,304.23L336.39,304.26L336.77,296.86L336.9,309.74L337.03,306.31L337.08,309.03L337.59,309.37L337.76,300.81L337.85,305.15L337.89,308.75L338.06,309.98L338.15,305.59L338.58,308.59L338.62,310.29L338.8,300.28L339.4,305.16L339.44,307.83L339.83,303.69L340.09,309.66L340.13,307.91L340.17,303.94L340.26,308.01L340.3,300.78L340.6,306.02L340.65,271.82L340.95,309.35L341.42,307.16L341.46,302.5L341.55,302.37L342.24,309.3L342.28,307.97L342.41,310.3L342.84,293.15L343.05,305.28L343.1,307.49L343.23,310.37L343.44,298.46L343.83,306.92L343.87,306.57L343.96,277.37L344.3,309.26L344.52,305.14L344.56,299L344.99,309.8L345.33,308.7L345.38,309.9L346.06,299.4L346.11,308.99L346.24,297.06L346.58,310.28L346.8,302.16L346.84,308.42L347.4,302.24L347.48,311.18L347.66,305.01L347.7,310.59L348.04,301.82L348.43,308.95L348.47,308.38L348.9,297.37L348.99,309.46L349.2,303.12L349.25,306.82L349.29,306.46L349.33,292.39L349.38,309.41L350.11,307.7L350.15,304.36L350.32,309.71L350.37,295.24L350.97,306.9L351.01,305.58L351.35,310.4L351.44,301.52L351.61,309.98L351.66,295.25L351.74,309.89L352.43,308.81L352.47,306.07L352.6,308.52L352.65,303.51L352.77,303.22L353.12,309.13L353.51,308.72L353.55,307.65L353.68,309.5L354.06,298.85L354.28,307.41L354.32,308.02L354.41,310.44L355.05,302.73L355.1,308.44L355.27,306.69L355.31,307.33L355.35,300.85L355.57,309.64L356.09,305.9L356.13,303.6L356.3,310.55L356.69,296.83L356.86,306.66L356.9,304.45L357.42,309.9L357.68,307.59L357.72,307.06L357.94,308.49L358.11,304.29L358.15,298.57L358.32,309.22L358.84,307.45L358.88,285.98L359.05,309.85L359.66,304.65L359.7,307.94L359.96,302.4L360.09,310.06L360.47,305.35L360.52,304.4L360.86,309.93L361.16,295.24L361.29,307.44L361.33,299.89L361.76,309.71L362.11,307.2L362.15,309.69L362.19,303.5L362.24,310.49L362.88,308.21L362.92,308.81L363.01,310.46L363.23,304.06L363.57,309.46L363.61,307.54L363.91,301.63L364,309.94L364.34,308.42L364.39,307L364.43,295.48L364.77,309.63L365.12,308.22L365.16,309.3L365.42,301.89L365.89,305.86L365.94,309.17L366.15,310.04L366.24,300.88L366.41,305L366.45,307.99L366.62,297.78L366.71,309.68L367.1,308.3L367.14,296.41L367.31,310.56L367.91,306.65L367.96,304.87L368.13,311.16L368.73,308.75L368.77,308L369.25,305.1L369.38,310.4L369.46,307.02L369.51,309.3L369.63,308.8L369.68,302.89L369.94,310.23L370.06,300.52L370.41,308.83L370.45,295.06L370.92,310.7L371.23,305.71L371.27,309.12L371.4,305.58L371.66,306.55L371.7,308.07L371.91,310.01L372.26,301.57L372.43,305.9L372.47,307.94L372.56,305.32L372.86,309.72L372.95,306.48L372.99,296.94L373.38,296L373.63,310.53L373.76,304.18L373.81,305.62L374.06,309.59L374.41,303.46L374.45,309.41L374.49,302.49L374.62,309.43L374.8,293.96L375.31,308.03L375.35,307.17L375.66,308.96L375.7,305.07L375.74,308.15L375.78,303.53L375.91,311.1L376.56,310.45L376.6,308.2L376.65,311.62L377.25,302.79L377.33,307.99L377.38,307.07L378.02,296.41L378.06,310.36L378.15,304.5L378.19,301.69L378.41,311.04L378.45,300.78L378.92,307.69L378.97,303.68L379.01,301.47L379.23,310.15L379.61,309.66L379.66,307.87L379.83,299.25L379.96,309.71L380.3,303.23L380.34,307.12L380.6,304.98L380.9,310.55L381.08,308.73L381.12,305.51L381.25,310.72L381.29,308.25L381.33,292.63L382.06,309.75L382.11,308.65L382.15,309.2L382.24,312.12L382.41,296.28L382.84,307.41L382.88,306.89L382.97,305.3L383.44,310.61L383.66,309.66L383.7,306.85L383.78,304.31L383.83,309.51L384,307.71L384.04,310.53L384.3,300.59L384.77,307.43L384.82,307.58L385.16,310.41L385.33,302.45L385.51,309.7L385.55,294.91L385.94,309.74L386.32,309.05L386.37,309.63L386.88,311.4L387.01,305.43L387.14,306.95L387.18,308.79L387.27,303.77L387.7,310.67L387.83,308.78L387.87,310.4L387.91,298.24L388.47,310.68L388.6,308.07L388.65,307.05L388.77,303.03L388.9,310.58L389.2,307.67L389.25,305.41L389.63,310.74L389.72,302.98L390.02,309.03L390.06,303.9L390.19,291.96L390.75,309.54L390.88,307.85L390.92,304.86L390.97,302.45L391.31,310.25L391.53,307.28L391.57,309.89L391.61,310.75L391.74,299.77L392.13,307.57L392.17,306.13L392.34,303.23L392.9,311.29L392.95,301.56L393.08,310.08L393.38,299.82L393.72,310.06L393.76,305.6L394.32,303.74L394.54,311.49L394.58,309.32L394.62,309.2L394.97,311.36L395.01,304.91L395.35,307.43L395.4,310.61L395.48,310.86L395.53,301.93L396.13,307.91L396.17,310.45L396.34,311.23L396.56,303.02L396.9,309.07L396.95,310.91L397.08,301.16L397.63,311.54L397.76,305.5L397.81,309.69L397.94,304.4L397.98,310.86L398.54,307.92L398.58,309.23L398.8,303.62L398.88,309.56L399.35,304.32L399.4,306.95L399.78,311.14L399.87,299.07L400.13,306.77L400.17,308.78L400.34,310.79L400.39,309.24L400.43,308.44L400.47,310.72L400.86,305.17L401.12,309.25L401.16,306.3L401.51,310.53L401.72,304.91L401.81,307.35L401.85,295.82L401.94,292.98L402.49,310.29L402.62,304.58L402.67,311.37L402.88,303.9L402.92,306.92L402.97,311.18L403.18,300.1L403.74,308.37L403.78,305.62L403.83,310.35L404.13,305.61L404.56,308.69L404.6,309.37L404.73,311.34L405.08,305.41L405.38,307.59L405.42,308.93L405.59,311.08L405.94,304.92L406.11,307.8L406.15,310.16L406.24,300.02L406.67,310.43L406.8,307.15L406.84,308.69L406.92,304.19L407.23,309.65L407.4,307.95L407.44,309.4L407.78,310.92L408.13,304.95L408.17,306.23L408.22,307.01L408.56,311.08L408.77,303.38L408.99,309.02L409.03,306.2L409.2,310.64L409.25,303.27L409.81,308.83L409.85,301.2L410.32,310.99L410.62,306.76L410.67,305.74L410.84,303.9L411.23,311.74L411.4,310.18L411.44,305.43L411.48,310.91L411.74,301.18L412.17,307.61L412.22,306.52L412.3,300.31L412.86,311.42L412.99,311.4L413.03,306.52L413.46,305.61L413.63,311.33L413.76,306.47L413.81,306.82L413.85,306.57L413.89,309.49L414.24,307.69L414.28,309.94L414.49,310.16L414.97,304.89L415.01,309.2L415.18,312.6L415.44,304.98L415.74,306.08L415.78,310L416.26,305.12L416.3,308.6L416.34,311.06L416.6,305.4L417.12,305.71L417.16,307.83L417.2,302.48L417.72,310.37L417.89,308.68L417.94,307.22L418.32,300.98L418.37,310.07L418.62,309.51L418.67,305.44L418.71,296.15L418.84,309.95L419.4,298.23L419.44,308.46L419.66,310.66L419.74,299.05L420.17,302.01L420.22,309.76L420.3,310.45L420.86,303.39L420.95,307.5L420.99,310.08L421.12,306.11L421.29,306.88L421.33,310.21L421.72,302.52L421.76,311.86L422.06,305.28L422.11,307.15L422.28,310.58L422.41,304.97L422.49,305.62L422.54,301.41L423.14,309.24L423.35,308.6L423.4,307.17L423.44,310.15L424.09,304.31L424.17,308.75L424.22,307.72L424.65,310.38L424.77,305.6L424.99,306.89L425.03,307.59L425.08,310.64L425.63,302.92L425.76,308.66L425.81,306.21L425.98,303.51L426.06,310.58L426.37,308.35L426.41,310.58L427.05,302.97L427.1,310.99L427.18,309.23L427.23,308.53L427.66,310.04L427.96,295.41L428,310.05L428.17,311.17L428.77,302.26L428.82,305.56L428.95,305.11L429.42,311.36L429.55,306.81L429.59,305.27L429.81,311.05L430.32,304.24L430.37,310.63L430.41,303.96L431.1,311.17L431.14,308.48L431.18,301.37L431.96,311.33L432,308.68L432.09,310.57L432.13,286.32L432.6,306.51L432.65,308.91L432.82,310.66L432.86,304.59L433.08,309.49L433.12,303.01L433.81,302.1L433.85,310.69L433.89,305.65L433.94,304.82L434.28,310.61L434.62,304.32L434.71,310.05L434.75,305.5L435.01,302.1L435.23,311.03L435.53,309.78L435.57,307.46L435.91,301.63L435.96,310.25L436.26,307.35L436.3,305.26L436.73,301.19L436.99,310.01L437.03,308.5L437.08,307.84L437.42,304.73L437.72,310.58L437.76,307.53L437.94,311.68L438.06,304.52L438.54,311.06L438.58,308.62L438.71,305.04L439.01,311.23L439.27,307.68L439.31,303.63L439.66,303.2L439.83,311.27L440.04,307.12L440.09,306.31L440.26,302.71L440.56,310.39L440.86,308.97L440.9,310.08L441.12,305.19L441.29,310.3L441.55,307.85L441.59,310.06L441.98,311.37L442.24,303.94L442.28,308.22L442.32,311.25L442.41,301.09L442.8,311.34L443.1,307.25L443.14,306.76L443.66,304.13L443.7,310.29L443.87,309.08L443.91,300.94L444.43,296.11L444.56,311.43L444.73,308.85L444.77,308.04L445.16,305.2L445.55,310.44L445.59,309.42L445.76,312.43L445.85,301.72L446.11,305.37L446.15,310.16L446.54,304.55L446.58,311.1L446.92,306.69L446.97,308.38L447.27,310.93L447.31,305.27L447.7,308.14L447.74,308.31L447.78,310.39L447.83,305.7L448.47,308.92L448.52,306.34L448.73,310.9L449.2,300.44L449.29,308.83L449.33,308.49L449.38,308.3L449.42,309.98L449.46,306.81L449.76,310.54L449.98,306.67L450.24,310L450.28,310.51L450.49,306.47L450.84,310.99L451.01,307.23L451.05,310.81L451.44,311.73L451.48,303.73L451.74,308.33L451.78,311.25L452.22,311.55L452.56,304.14L452.6,308.91L452.65,303.23L452.69,311.31L453.33,309.5L453.38,309.4L453.55,310.59L453.89,307.98L454.02,309.34L454.06,311.89L454.8,301.78L454.84,307.09L454.88,310.3L455.31,310.34L455.57,305.49L455.66,308.27L455.7,308.6L455.96,310.55L456.04,303.4L456.17,308.12L456.22,311.18L456.56,302.65L456.99,307.32L457.03,309.6L457.29,299.74L457.33,310.85L457.81,306.36L457.85,306.26L457.94,306.16L458.41,311.27L458.58,309.99L458.62,306.85L458.8,312.79L459.31,304.44L459.35,311.39L459.4,306.77L459.87,303.32L460.17,311.32L460.22,306.74L460.43,301.81L460.6,310.98L460.9,310L460.95,304.77L461.12,310.98L461.25,304.2L461.72,307.83L461.76,307.38L461.98,310.92L462.02,304.41L462.06,311.21L462.41,302.59L462.75,306.67L462.8,307.52L463.18,303.28L463.35,311.96L463.53,307.75L463.57,310.86L463.78,303.96L464.3,308.72L464.34,311.75L464.43,311.9L464.77,296.7L465.12,309.89L465.16,309.72L465.2,304.78L465.46,311.48L465.89,309.45L465.94,309.53L466.06,310.52L466.62,304.67L466.71,307.15L466.75,311.65L467.18,305.04L467.53,308.66L467.57,310.19L467.74,310.42L468.22,305.74L468.34,308.23L468.39,309.72L468.47,310.82L468.9,307.49L468.95,309.72L468.99,305.82L469.03,305.14L469.12,309.91L469.55,308.37L469.59,310.77L469.68,302.34L470.19,312.3L470.28,309.76L470.32,308.97L470.8,304.57L470.84,311.8L470.97,308.44L471.01,310.31L471.14,310.62L471.31,301.38L471.61,307.07L471.66,310.21L472.09,311.54L472.22,306.62L472.43,307.25L472.47,309.97L472.65,310.41L472.69,307.37L472.82,307.73L472.86,305.75L473.38,310.8L473.59,309.63L473.63,305.41L473.72,312.38L474.02,299.62L474.37,305.39L474.41,305.89L474.49,311.73L475.01,304.65L475.18,309.38L475.23,308.88L475.27,311.27L475.4,306.95L475.91,308.85L475.96,306.4L476.04,311.87L476.43,306.09L476.73,311.03L476.77,309.9L476.99,310.69L477.42,304.64L477.46,306.09L477.51,310.58L477.85,300.24L478.02,311.07L478.32,306.99L478.37,310.74L478.84,311.58L478.88,304.06L479.18,304.41L479.23,308.55L479.48,298.87L479.87,310.75L479.96,308.17L480,309.2L480.26,311.67L480.43,305.12L480.65,310.71L480.69,304.94L480.9,312.01L481.46,310.64L481.51,308.53L481.59,310.92L481.98,304.84L482.06,307.63L482.11,306.27L482.41,304.15L482.58,311.19L482.84,309.4L482.88,304.51L483.57,311.24L483.66,310.48L483.7,307.17L484.17,312.07L484.34,306.87L484.39,310.18L484.43,306.24L484.52,300.47L484.77,310.59L485.2,308.4L485.25,308.36L485.38,310.91L485.63,307.38L485.72,308.71L485.76,310.68L485.81,304.23L486.49,308.05L486.54,311.72L487.05,281.21L487.27,306.73L487.31,310.62L487.35,304.44L488.04,312.61L488.09,309.17L488.17,310.4L488.47,304.43L488.82,307.73L488.86,310L489.16,302.34L489.2,311.05L489.59,308.9L489.63,310.96L489.76,306.42L490.37,309.43L490.41,309.63L490.54,308.99L490.62,311.72L490.67,297.72L491.44,310.92L491.48,311.49L492.09,304.19L492.22,310.38L492.26,311.2L493.12,305.39L493.16,310.74L493.2,311.1L493.25,304.6L493.33,311.5L493.98,307.68L494.02,306.05L494.06,292.52L494.28,311.12L494.75,308.55L494.8,307.55L495.18,306.41L495.53,311.43L495.57,309.41L495.61,304.44L495.87,303.13L496.34,311.08L496.39,308.28L496.43,307.26L496.56,310.37L496.6,303.24L496.73,311.83L496.86,300.49L497.38,310.5L497.42,308.92L497.51,306.61L497.68,310.75L497.72,297.32L498.11,312.39L498.49,306.55L498.54,308.86L498.75,311.56L498.97,305.66L499.27,309.11L499.31,306.17L499.78,312L500.04,309.42L500.09,309.31L500.13,305.6L500.56,311.95L500.82,306.35L500.86,310.67L501.46,310.77L501.55,305.86L501.63,309.8L501.68,309.51L501.72,291.76L502.37,311.55L502.41,309.06L502.45,307.22L502.49,306.56L502.84,310.77L503.05,307.63L503.1,309.32L503.14,296.91L503.18,310.38L503.83,309.26L503.87,309.24L503.96,310.3L504.09,307.12L504.17,309.21L504.22,304.91L504.56,302.36L504.69,311.48L505.08,309.12L505.12,309.01L505.2,304.99L505.85,311.35L505.89,309.49L506.24,311.85L506.41,307.23L506.58,309.59L506.62,305.99L506.71,301.83L507.18,310.6L507.35,308.63L507.4,307.55L507.83,304.63L508.17,311.57L508.22,307.98L508.52,300.09L508.56,310.47L508.65,306.76L508.69,310.88L508.86,311.64L509.33,305.04L509.46,308.58L509.51,312.16L510.19,306.28L510.24,308.88L510.28,310.81L510.67,301.35L510.84,311.04L511.05,307.32L511.1,311.83L511.66,306.15L511.83,308.57L511.87,310.29L511.91,306.69L512.6,311.23L512.65,309.16L512.77,297.07L512.86,311.78L513.25,309.15L513.29,308.5L513.33,304.95L513.55,311.14L514.02,308.94L514.06,308.88L514.11,306.91L514.19,311.08L514.8,308.61L514.84,309.82L514.97,310.37L515.05,309.39L515.14,309.84L515.18,304.35L515.4,311.47L515.96,307.47L516,307.94L516.39,305.67L516.6,311.23L516.69,307.5L516.73,311.8L517.51,301.73L517.55,310.67L517.59,303.86L518.24,313.19L518.28,308.62L518.32,308.94L518.54,310.89L518.62,306.31L518.97,307.24L519.01,311.44L519.44,312.2L519.53,298L519.78,309.53L519.83,310.08L520.26,305.35L520.3,311.25L520.6,310.87L520.65,308.91L520.9,305.96L521.12,311.89L521.42,307.28L521.46,309.77L521.51,308.67L521.55,281.58L522.02,311.45L522.32,308.39L522.37,310.62L522.41,311.26L522.62,307.48L522.75,309.89L522.8,302.2L523.4,311.33L523.53,310.61L523.57,305.56L523.61,311.53L524.17,303.18L524.3,305.6L524.34,306.88L524.39,312.12L524.86,305.13L525.12,310.43L525.16,310.71L525.68,310.78L525.89,303.12L525.94,305.22L525.98,309.91L526.49,310.03L526.67,302.55L526.75,307.52L526.8,310.19L527.4,310.41L527.44,305.77L527.57,307.54L527.61,309.52L527.66,305.83L528.13,312.27L528.3,305.92L528.34,312.22L529.12,301.14L529.2,307.77L529.25,309.34L529.72,306.41L529.76,311.99L529.89,310.39L529.94,306.84L530.28,311.59L530.71,308.76L530.75,306.6L530.88,311.26L531.1,294.54L531.53,309.32L531.57,306.65L531.61,305.47L532.13,311.8L532.22,309.25L532.26,310.16L532.3,301.23L532.69,311.5L532.99,309.59L533.03,310.31L533.42,310.89L533.59,305.4L533.76,308.04L533.81,311.97L534.24,312.1L534.62,301.32L534.67,311.7L534.75,312.01L535.1,305.8L535.44,309.91L535.48,309.89L535.53,312.02L536,305.98L536.22,310.35L536.26,308.88L536.34,311.84L536.65,306.13L536.9,310.05L536.95,310.54L536.99,311.1L537.12,306.09L537.25,308.25L537.29,303.82L537.46,312.98L538.06,310.43L538.11,311.41L538.15,302.74L538.84,310.43L538.88,309.57L538.97,312.15L539.1,306.96L539.14,311.18L539.18,305.74L539.91,304.27L540,311.57L540.04,307.88L540.09,307.5L540.22,309.56L540.39,308.19L540.43,310.79L540.77,304.47L541.12,311.98L541.2,306.85L541.25,306.61L541.81,311.43L541.89,304.59L541.98,309.35L542.02,307.63L542.19,303.75L542.24,309.34L542.28,312.02L542.62,306.01L542.88,312.14L543.05,307.4L543.1,310.29L543.14,311.63L543.74,307.24L543.83,311.13L543.87,309.67L544.09,312.03L544.22,307.7L544.39,309.48L544.43,307.56L544.82,306.62L545.08,310.98L545.2,309.48L545.25,309.42L545.42,311.65L545.72,305.75L546.02,310.34L546.06,309.6L546.11,311.85L546.62,303.48L546.8,309.25L546.84,310.89L547.27,311.63L547.66,306.04L547.7,308.09L548.17,312.14L548.34,305.75L548.47,311.15L548.52,308.7L548.65,311.93L548.82,305.26L549.29,311.49L549.33,309.59L549.38,310.17L549.42,304.35L549.46,295.41L549.85,312.19L550.24,304.34L550.28,303.4L551.01,310.96L551.05,309.2L551.1,307.77L551.23,311.45L551.66,308.38L551.7,306.49L551.74,306.28L551.78,309.41L551.87,309.16L551.91,311.81L552.39,304.72L552.73,306.83L552.77,306.58L552.82,310.49L553.51,309.42L553.55,306.91L553.59,305.87L553.85,311.96L554.19,309.34L554.24,309.91L554.41,305.92L554.54,311.91L554.75,306.2L554.8,305.1L555.14,312.34L555.35,302.73L555.57,309.72L555.61,308.96L556.13,306.44L556.22,313.5L556.34,310.77L556.39,308.34L556.56,310.21L556.6,305.8L556.73,312.64L557.29,310.47L557.33,305.17L557.59,312.19L557.98,304.74L558.11,311.22L558.15,308.56L558.24,312.74L558.28,307.34L558.75,310.07L558.8,310.87L558.88,312.47L558.92,307.84L559.18,309.05L559.23,299.12L559.87,311.83L560,308.64L560.04,307.14L560.13,312.06L560.73,311.24L560.77,308.98L561.03,304.26L561.12,312.43L561.29,309.96L561.33,304.22L561.51,311.87L562.11,309.71L562.15,307.41L562.41,311.31L562.45,303.92L562.84,308.25L562.88,308.85L562.97,312.49L563.18,305.77L563.66,310.55L563.7,308.91L563.78,311.83L564,307.19L564.39,310.25L564.43,303.64L564.56,313.09L565.2,308.78L565.25,311.2L565.72,306.99L565.85,312.46L565.98,310.72L566.02,310.19L566.11,311.62L566.67,306.26L566.75,310.9L566.8,309.5L566.92,312.25L567.23,307.87L567.27,287.09L567.91,311.44L568.04,305.41L568.09,311.2L568.22,306.71L568.43,307.74L568.47,311.41L568.95,306.48L569.33,307.09L569.38,308.92L569.46,311.16L569.55,303.94L570.15,311L570.19,302.1L571.01,311.11L571.05,310.64L571.35,312.09L571.44,308.02L571.66,309.7L571.7,311.12L572.04,312.03L572.34,306.49L572.52,307.67L572.56,309.84L572.69,304.01L572.86,310.83L572.95,308.42L572.99,312.95L573.42,302.56L573.76,310.15L573.81,309.89L573.89,306.2L574.19,311.58L574.54,310.32L574.58,310.28L574.71,311.96L574.75,305.46L575.27,310.2L575.31,311.67L575.57,299.4L576.09,309.12L576.13,309.7L576.22,303.65L576.82,311.59L576.86,308.68L576.99,312.11L577.16,303.78L577.59,308.11L577.63,309.35L577.94,307.94L577.98,311.6L578.11,310.62L578.15,298.71L578.62,311.72L578.97,310.11L579.01,311.01L579.23,311.61L579.7,301.72L579.78,307.33L579.83,311.87L580,308.39" style="vector-effect: non-scaling-stroke; fill: none; stroke: rgb(31, 119, 180); stroke-opacity: 1; stroke-width: 2px; opacity: 1;"/></g><g class="points"/><g class="text"/></g></g></g><g class="overplot"/><path class="xlines-above crisp" d="M0,0" style="fill: none;"/><path class="ylines-above crisp" d="M0,0" style="fill: none;"/><g class="overlines-above"/><g class="xaxislayer-above"><g class="xtick"><text text-anchor="middle" x="0" y="403" transform="translate(60,0)" style="font-family: 'Open Sans', verdana, arial, sans-serif; font-size: 12px; fill: rgb(68, 68, 68); fill-opacity: 1; white-space: pre;">0</text></g><g class="xtick"><text text-anchor="middle" x="0" y="403" transform="translate(176,0)" style="font-family: 'Open Sans', verdana, arial, sans-serif; font-size: 12px; fill: rgb(68, 68, 68); fill-opacity: 1; white-space: pre;">0.2</text></g><g class="xtick"><text text-anchor="middle" x="0" y="403" transform="translate(292,0)" style="font-family: 'Open Sans', verdana, arial, sans-serif; font-size: 12px; fill: rgb(68, 68, 68); fill-opacity: 1; white-space: pre;">0.4</text></g><g class="xtick"><text text-anchor="middle" x="0" y="403" transform="translate(408,0)" style="font-family: 'Open Sans', verdana, arial, sans-serif; font-size: 12px; fill: rgb(68, 68, 68); fill-opacity: 1; white-space: pre;">0.6</text></g><g class="xtick"><text text-anchor="middle" x="0" y="403" transform="translate(524,0)" style="font-family: 'Open Sans', verdana, arial, sans-serif; font-size: 12px; fill: rgb(68, 68, 68); fill-opacity: 1; white-space: pre;">0.8</text></g><g class="xtick"><text text-anchor="middle" x="0" y="403" transform="translate(640,0)" style="font-family: 'Open Sans', verdana, arial, sans-serif; font-size: 12px; fill: rgb(68, 68, 68); fill-opacity: 1; white-space: pre;">1</text></g></g><g class="yaxislayer-above"><g class="ytick"><text text-anchor="end" x="59" y="4.199999999999999" transform="translate(0,376.96)" style="font-family: 'Open Sans', verdana, arial, sans-serif; font-size: 12px; fill: rgb(68, 68, 68); fill-opacity: 1; white-space: pre;">0</text></g><g class="ytick"><text text-anchor="end" x="59" y="4.199999999999999" transform="translate(0,321.28)" style="font-family: 'Open Sans', verdana, arial, sans-serif; font-size: 12px; fill: rgb(68, 68, 68); fill-opacity: 1; white-space: pre;">0.2</text></g><g class="ytick"><text text-anchor="end" x="59" y="4.199999999999999" transform="translate(0,265.61)" style="font-family: 'Open Sans', verdana, arial, sans-serif; font-size: 12px; fill: rgb(68, 68, 68); fill-opacity: 1; white-space: pre;">0.4</text></g><g class="ytick"><text text-anchor="end" x="59" y="4.199999999999999" transform="translate(0,209.93)" style="font-family: 'Open Sans', verdana, arial, sans-serif; font-size: 12px; fill: rgb(68, 68, 68); fill-opacity: 1; white-space: pre;">0.6</text></g><g class="ytick"><text text-anchor="end" x="59" y="4.199999999999999" transform="translate(0,154.25)" style="font-family: 'Open Sans', verdana, arial, sans-serif; font-size: 12px; fill: rgb(68, 68, 68); fill-opacity: 1; white-space: pre;">0.8</text></g><g class="ytick"><text text-anchor="end" x="59" y="4.199999999999999" transform="translate(0,98.57)" style="font-family: 'Open Sans', verdana, arial, sans-serif; font-size: 12px; fill: rgb(68, 68, 68); fill-opacity: 1; white-space: pre;">1</text></g></g><g class="overaxes-above"/></g></g><g class="polarlayer"/><g class="ternarylayer"/><g class="geolayer"/><g class="pielayer"/><g class="glimages"/><defs id="topdefs-48ad49"><g class="clips"/></defs><g class="layer-above"><g class="imagelayer"/><g class="shapelayer"/></g><g class="infolayer"><g class="g-gtitle"><text class="gtitle" x="350" y="30" text-anchor="middle" dy="0em" style="font-family: 'Open Sans', verdana, arial, sans-serif; font-size: 17px; fill: rgb(68, 68, 68); opacity: 1; font-weight: normal; white-space: pre;">train iter loss</text></g><g class="g-xtitle"/><g class="g-ytitle"/></g></svg>